<svg width="1080" height="2100" viewBox="0 0 1080 2100" fill="none" xmlns="http://www.w3.org/2000/svg">
<g clip-path="url(#clip0_1090_135)">
<rect width="1080" height="2100" fill="white"/>
<rect y="2100" width="2100" height="1080" transform="rotate(-90 0 2100)" fill="#2D2D2D"/>
<g clip-path="url(#clip1_1090_135)">
<mask id="mask0_1090_135" style="mask-type:luminance" maskUnits="userSpaceOnUse" x="-65" y="-687" width="1697" height="3014">
<path d="M-64.1562 -686.557L-64.1562 2326.43H1631.92L1631.92 -686.557H-64.1562Z" fill="white"/>
</mask>
<g mask="url(#mask0_1090_135)">
<path d="M-102.963 1327.08C-51.4701 1354.48 0.0226544 1381.87 51.5154 1409.24C66.5766 1417.27 82.0447 1425.31 98.7002 1425.03C127.94 1424.38 151.38 1397.91 177.194 1381.72C195.795 1370.8 215.611 1363.06 236.048 1358.74C299.733 1343.31 365.356 1342.83 429.197 1357.33C457.657 1363.8 486.049 1373.4 514.984 1371.92C546.735 1370.39 577.264 1355.85 608.981 1354.24C628.282 1353.28 648.397 1357.05 666.41 1348.74C702.095 1332.27 713.018 1277.63 743.581 1250.23C762.102 1233.64 786.933 1228.02 803.317 1208.49C821.702 1186.6 824.823 1153.01 826.485 1122.2C830.465 1048.33 831.969 974.375 830.997 900.323C830.454 857.739 828.86 813.99 814.409 774.982C804.911 749.391 790.087 726.493 783.608 699.577C774.517 661.613 783.235 621.198 791.953 583.074C811.594 497.183 837.442 401.852 904.131 360.996C958.643 327.612 1033.47 336.048 1071.5 279.002C1088.97 252.769 1096.13 215.207 1120.86 199.178C1147.21 182.104 1179.4 198.093 1209.42 198.937C1243.35 199.861 1275.13 180.979 1308.64 175.596C1374.76 164.99 1439.21 207.253 1505.93 208.016C1536.38 208.03 1566.4 199.492 1593.53 183.101C1620.65 166.711 1644.11 142.937 1661.97 113.729" stroke="#29B6F6" stroke-width="3" stroke-miterlimit="10"/>
<path d="M1010.47 2399.62C1039.14 2372.67 1041 2320.36 1027.81 2279.95C1014.61 2239.54 989.443 2206.39 970.447 2169.39C943.751 2117.77 928.825 2059.04 914.883 2000.67C885.066 1876.13 858.336 1744.08 885.372 1618.66C896.837 1565.35 925.23 1508.42 971.329 1501.64C994.192 1498.3 1016.78 1508.22 1038.29 1517.99L1165.29 1575.63C1211.6 1596.64 1260.61 1618.02 1309.53 1608.58C1364.48 1597.97 1411.87 1545.18 1424.22 1480.91C1434.22 1428.68 1423.78 1369.31 1448.94 1324.95C1470.45 1287.03 1512.01 1272.73 1550.71 1270.84C1577.51 1269.68 1605.93 1274.01 1627.1 1293.5C1646.57 1311.42 1665.2 1343.15 1688.6 1333.67" stroke="#29B6F6" stroke-width="3" stroke-miterlimit="10"/>
<path d="M147.617 -707.455C169.361 -675.076 162.203 -628.394 154.876 -587.94C113.831 -361.564 102.841 -119.883 171.532 96.8114C196.159 174.546 236.932 254.129 303.826 279.358C328.826 288.759 355.488 289.683 381.845 290.526C439.681 292.334 498.705 293.981 554.099 274.136C590.022 261.24 623.367 239.627 654.303 214.478C675.674 197.124 696.671 177.198 708.578 150.201C719.466 125.575 722.146 97.173 724.012 69.4937C726.477 33.7128 728.037 -2.13509 728.693 -38.0499C729.032 -56.9313 728.998 -76.4956 722.689 -93.8102C715.192 -114.499 699.758 -129.364 684.866 -143.344L518.21 -300.421C487.68 -329.225 456.405 -358.913 436.12 -398.443C415.835 -437.974 408.406 -490.159 427.572 -530.492C435.543 -547.245 447.517 -560.903 455.76 -577.495C484.051 -634.179 462.816 -706.049 440.428 -766.309" stroke="#29B6F6" stroke-width="3" stroke-miterlimit="10"/>
<path d="M902.054 2356.68C911.077 2364.19 919.93 2346.44 920.303 2333.38C922 2269.1 901.443 2207.68 882.99 2147.3C827.291 1962.58 790.283 1759.99 834.245 1571.17C844.421 1526.78 860.127 1482.27 888.757 1451.13C936.45 1399.31 1009.65 1396.22 1072.51 1414.53C1135.37 1432.85 1193.74 1469.09 1256.74 1486.85C1273.7 1491.59 1292.12 1494.88 1307.92 1486.28C1320.1 1479.7 1329.09 1466.88 1335.98 1453.26C1366.91 1392.2 1362.4 1312.05 1395.81 1252.84C1423.19 1204.23 1472.44 1177.91 1521.32 1170.76C1570.2 1163.61 1619.69 1173.09 1668.47 1182.61" stroke="#29B6F6" stroke-miterlimit="10"/>
<path d="M1116.65 2408.1C1126.25 2385.12 1126.83 2358.45 1126.39 2332.78C1126.71 2313.53 1125.06 2294.31 1121.47 2275.53C1113.97 2242.07 1095.48 2213.94 1079 2185.26C1016.16 2077.11 975.424 1953.14 960.003 1823.14C955.288 1783.45 945.247 1742.99 950.709 1702.86C956.475 1660.52 980.458 1618.82 1015.77 1609.38C1044.94 1601.58 1074.56 1616.53 1102.37 1629.46C1175 1663.17 1254.51 1685.1 1330.93 1666.78C1407.36 1648.47 1479.34 1582.14 1494.87 1491.59C1498.71 1469.17 1499.25 1445.51 1507.59 1424.9C1521.98 1389.51 1557.8 1371.07 1590.84 1374.28C1623.88 1377.5 1654.03 1398.91 1678.35 1425.58" stroke="#29B6F6" stroke-miterlimit="10"/>
<path d="M1113.28 2083.98C1140.69 2176.38 1169.39 2271.71 1224.61 2344.83C1262.34 2394.72 1325.09 2433.33 1374.11 2399.91C1384.17 2393.07 1392.81 2383.64 1399.38 2372.31C1413.73 2347.48 1416.95 2315.86 1416.1 2285.77C1413.25 2186.27 1371.36 2094.99 1330.52 2007.98C1299.41 1941.73 1266.81 1874.72 1223.02 1818.92C1189.88 1776.7 1122.07 1705.31 1067.9 1716.16C975.055 1734.8 1097.82 2031.68 1113.28 2083.98Z" stroke="#29B6F6" stroke-miterlimit="10"/>
<path d="M822.441 2362.91C833.974 2354.63 835.365 2335.75 834.958 2319.76C830.514 2150.63 770.066 1990.9 747.17 1823.9C737.807 1755.61 734.721 1686.31 722 1619.02C711.349 1562.37 689.707 1501.99 644.965 1478.41C607.652 1458.61 564.368 1469.74 523.561 1465.72C485.841 1462.02 449.986 1445.23 412.978 1435.91C351.558 1420.63 287.749 1426.08 228.82 1451.66C197.85 1465.16 168.033 1484.32 135.299 1489.26C49.1055 1501.95 -26.437 1415.14 -113.004 1406.46" stroke="#29B6F6" stroke-miterlimit="10"/>
<path d="M761.862 2365.68C783.504 2288.35 760.336 2204.74 740.526 2126.73C707.18 1995.4 683.037 1861.03 668.341 1725C663.863 1683.42 659.657 1639.71 639.101 1605.56C614.881 1565.39 572.276 1546.35 530.96 1539.76C489.643 1533.17 447.547 1536.79 406.163 1530.8C377.737 1526.78 348.87 1518.1 320.885 1525.38C294.223 1532.33 271.834 1552.89 247.479 1567.48C219.18 1584.07 188.074 1592.84 156.5 1593.14C124.925 1593.44 93.7047 1585.26 65.1857 1569.2C43.6456 1556.63 24.0391 1539.88 2.70253 1526.98C-37.0194 1503.4 -81.4563 1494.08 -125.215 1485" stroke="#29B6F6" stroke-miterlimit="10"/>
<path d="M679.435 2351.78C704.198 2273.92 691.036 2186.5 669.564 2107.32C643.444 2010.91 620.31 1914.73 605.113 1813.54C593.309 1734.07 562.678 1670.12 492.63 1649.51C443.444 1635 389.678 1635.25 339.746 1643.56C291.408 1651.6 248.599 1686.67 199.447 1688.56C149.04 1690.44 100.532 1673.21 55.0097 1648.9C2.1601 1620.78 -53.3014 1584.23 -113.41 1594.23" stroke="#29B6F6" stroke-miterlimit="10"/>
<path d="M239.744 2213.94C263.808 2274.13 300.795 2325.77 347.004 2363.71C392.739 2402.06 446.601 2424.54 502.534 2428.63C528.383 2430.24 555.927 2427.14 576.992 2409.31C614.272 2377.85 617.664 2315.02 615.968 2261.03C614.448 2190.89 609.123 2120.93 600.025 2051.6C590.391 1981.94 575.466 1913.49 552.195 1849.61C534.963 1802.33 508.81 1751.07 467.595 1729.53C420.105 1704.67 362.065 1719.73 317.459 1747.05C257.044 1784.09 234.961 1868.85 219.765 1941.73C200.972 2031.76 206.501 2129.58 239.744 2213.94Z" stroke="#29B6F6" stroke-miterlimit="10"/>
<path d="M337.744 1812.21C293.647 1839.53 275.363 1899.23 263.66 1954.46C262.744 1958.48 261.896 1962.78 261.082 1966.88C247.653 2032.48 251.079 2101.33 270.919 2164.61C272.887 2170.72 275.058 2176.66 277.364 2182.77C296.073 2230.49 324.876 2271.67 360.981 2302.33C366.023 2306.66 371.213 2310.76 376.55 2314.62C408.704 2338.71 445.571 2352.55 483.572 2354.79C487.168 2354.79 490.797 2354.79 494.427 2354.79C511.388 2354.23 528.348 2349.85 541.917 2337.96C570.343 2313.13 573.396 2264.24 572.446 2221.46C571.903 2199.24 571.021 2176.7 569.631 2154.05C567.663 2121.91 564.712 2089.33 560.302 2057.15C553.283 2002.71 540.826 1949.46 523.192 1898.5C509.285 1859.41 488.491 1817.63 455.96 1799.52C418.782 1779.15 373.43 1789.87 337.744 1812.21Z" stroke="#29B6F6" stroke-miterlimit="10"/>
<path d="M358.028 1877.09C325.938 1897.5 312.37 1941.17 304.161 1982.67L302.397 1991.83C293.2 2040.41 295.955 2091.11 310.335 2137.9C311.759 2142.44 313.32 2146.94 314.982 2151.35C328.293 2186.81 348.902 2217.75 374.921 2241.34C378.584 2244.68 382.35 2247.81 386.149 2250.78C409.333 2269.54 436.548 2280.09 464.609 2281.19C467.255 2281.19 469.934 2281.19 472.614 2280.99C485.02 2280.6 497.031 2275.74 507.044 2267.05C526.787 2248.81 529.432 2213.86 528.991 2182.29C528.686 2166.22 528.143 2149.91 527.194 2133.4C525.871 2110.1 523.801 2086.47 520.647 2063.09C515.556 2023.62 506.714 1984.96 494.29 1947.84C483.706 1916.9 468.272 1884.48 444.426 1869.94C417.526 1853.55 384.69 1860.1 358.028 1877.09Z" stroke="#29B6F6" stroke-miterlimit="10"/>
<path d="M378.316 1942.13C358.438 1955.51 349.585 1983.27 344.7 2011.03L343.717 2016.9C338.716 2048.44 340.775 2080.99 349.687 2111.3C350.569 2114.24 351.485 2117.17 352.502 2120.06C360.498 2143.2 372.923 2163.83 388.798 2180.32C391.071 2182.61 393.377 2184.78 395.582 2186.87C410.677 2200.29 427.706 2208.24 445.48 2207.56C447.176 2207.56 448.873 2207.36 450.569 2207.12C458.458 2206.08 465.892 2202.21 471.871 2196.03C482.997 2184.5 485.44 2163.41 485.44 2143.08C485.44 2133.2 485.168 2122.99 484.659 2112.67C483.947 2098.29 482.726 2083.58 480.86 2068.92C477.809 2044.38 472.614 2020.28 465.358 1997.01C458.235 1974.11 448.058 1951.25 432.828 1940.17C416.206 1928.03 395.955 1930.28 378.316 1942.13Z" stroke="#29B6F6" stroke-miterlimit="10"/>
<path d="M428.962 2133C432.318 2131.39 435.165 2128.58 437.103 2124.96C440.869 2118.49 442.497 2106.24 442.293 2091.86C441.95 2076.41 439.967 2061.08 436.391 2046.22C432.795 2031.44 427.639 2018.1 421.262 2010.55C414.885 2003 407.219 2000.51 398.603 2007.34C390.733 2013.6 386.527 2025.49 385.238 2039.47C384.132 2054.75 385.455 2070.13 389.139 2084.83C392.183 2098.73 397.725 2111.7 405.387 2122.83C412.307 2131.91 420.414 2136.45 428.962 2133Z" stroke="#29B6F6" stroke-miterlimit="10"/>
<path d="M-90.5801 1685.67C-74.4675 1670.56 -51.8759 1668.39 -31.8284 1673.62C-11.7809 1678.84 6.50264 1690.93 24.8201 1701.98C53.0961 1719.13 82.1293 1734.47 111.794 1747.94C128.416 1755.41 146.157 1763.12 156.944 1779.83C167.731 1796.55 169.46 1819.2 169.63 1840.38C170.309 1926.43 154.162 2012.04 157.995 2097.97C163.22 2206.55 199.918 2309.68 261.896 2389.94" stroke="#29B6F6" stroke-miterlimit="10"/>
<path d="M179.334 2365.44C143.241 2313.85 130.283 2245.16 123.601 2178.63C116.412 2107.44 115.083 2035.6 119.632 1964.1C121.26 1938.07 123.702 1911.88 121.837 1885.97C119.971 1860.06 113.458 1833.74 99.2109 1813.66C85.6423 1794.73 66.3748 1783.16 47.243 1773.12C25.5332 1761.75 3.14495 1751.63 -20.6002 1748.57C-44.3453 1745.52 -69.142 1750.26 -88.4434 1766.33" stroke="#29B6F6" stroke-miterlimit="10"/>
<path d="M-3.63968 1841.94C15.6277 1848.61 33.1312 1860.02 44.1557 1874.52C66.7474 1904.29 65.5941 1947.76 68.5453 1985.36C72.1749 2031.68 74.4137 2078.2 74.9225 2124.76C75.4313 2179.28 81.2319 2248.05 59.2508 2297.95C52.6963 2312.49 43.3172 2324.97 31.8871 2334.37C20.4569 2343.77 7.30323 2349.82 -6.48909 2352.02C-91.8017 2364.8 -102.996 2257.77 -110.221 2184.02C-117.005 2113.79 -126.469 2042.41 -122.942 1971.54C-120.872 1930.28 -117.446 1873.36 -84.7799 1848.53C-63.8843 1832.62 -31.8624 1832.3 -3.63968 1841.94Z" stroke="#29B6F6" stroke-miterlimit="10"/>
<path d="M-67.2431 2161.72C-72.9418 2117.29 -80.0992 2071.57 -78.8781 2025.97C-78.1996 1998.86 -74.7736 1965.71 -59.4412 1945.23C-46.5172 1927.91 -26.6393 1924.42 -8.55927 1933.17C3.07166 1938.77 12.8884 1948.63 19.4597 1961.3C29.3308 1980.38 29.8396 2004.08 31.0268 2026.46L31.3321 2031.28C33.2996 2060.2 35.5045 2089.25 36.3864 2118.29C37.2344 2143.76 39.134 2173.01 34.419 2199.44C32.8695 2208.77 29.9167 2217.7 25.7012 2225.8C21.4857 2233.32 15.848 2239.57 9.23561 2244.06C2.62319 2248.55 -4.78201 2251.16 -12.3924 2251.67C-56.6257 2254.72 -62.2566 2200.61 -67.2431 2161.72Z" stroke="#29B6F6" stroke-miterlimit="10"/>
<path d="M-24.2653 2139.42C-23.0752 2143.76 -21.0685 2147.71 -18.3969 2150.99C-17.0286 2152.6 -15.2845 2153.68 -13.3911 2154.09C-11.4976 2154.51 -9.54244 2154.24 -7.77952 2153.32C-6.45155 2152.23 -5.31867 2150.84 -4.44561 2149.22C-3.57255 2147.61 -2.97644 2145.81 -2.69133 2143.92C2.49863 2121.55 -5.81209 2098.13 -6.08346 2074.95C-6.08346 2065.87 -4.96406 2056.79 -5.40504 2047.71C-6.89757 2017.06 -31.0835 2008.54 -34.2381 2041.88C-37.4338 2074.87 -34.0171 2108.29 -24.2653 2139.42Z" stroke="#29B6F6" stroke-miterlimit="10"/>
<path d="M724.624 1455.84C726.624 1462.85 729.935 1469.24 734.311 1474.53C738.686 1479.81 744.014 1483.86 749.895 1486.37C766.856 1492.52 784.97 1481.63 797.385 1466.89C809.8 1452.14 818.789 1433.58 831.069 1418.68C842.195 1405.14 855.798 1394.9 868.382 1383.21C880.967 1371.52 892.738 1357.62 898.301 1339.9C903.864 1322.18 901.693 1299.97 889.549 1287.67C862.005 1259.79 785.919 1265.66 759.936 1296.87C731.815 1330.62 710.818 1411.93 724.624 1455.84Z" stroke="#29B6F6" stroke-miterlimit="10"/>
<path d="M976.724 1285.94C1002.57 1310.05 1033.68 1325.03 1064.34 1339.54C1100.77 1356.73 1137.2 1373.94 1173.6 1391.16C1190.09 1398.95 1206.85 1406.83 1224.49 1408.39C1242.13 1409.96 1261.22 1404.38 1273.03 1388.55C1281.71 1377.02 1285.55 1361.59 1288.7 1346.61C1326.22 1167.19 1297.01 978.137 1258.17 799.124C1235.34 694.111 1207.59 586.527 1147.48 504.774C1132.8 484.687 1116.01 466.368 1095.69 455.401C1078.26 446.675 1059.56 442.062 1040.63 441.823C978.488 439.211 910.408 473.118 886.968 541.332C877.368 569.453 876.045 600.105 874.824 630.235C874.179 646.305 873.535 662.736 876.554 678.443C879.946 696.642 888.155 713.033 895.007 729.865C925.706 805.311 929.437 892.969 909.559 972.874C892.056 1043.18 889.987 1102.23 911.764 1173.42C924.892 1216.57 946.127 1257.14 976.724 1285.94Z" stroke="#29B6F6" stroke-miterlimit="10"/>
<path d="M1005.39 1185.95C1023.71 1207.41 1046.57 1223.03 1071.1 1235.33C1097.38 1248.5 1124.32 1260.31 1151.01 1271.48C1163.09 1276.46 1175.34 1281.28 1188.09 1281.69C1200.85 1282.09 1214.38 1277.43 1222.89 1265.94C1229.27 1257.3 1232.26 1245.85 1234.63 1234.96C1240.53 1206.64 1244.21 1177.72 1245.62 1148.59C1251.39 1042.13 1234.63 933.465 1213.74 828.934C1198.06 749.03 1179.31 664.707 1135.11 600.711C1124.28 585.043 1111.84 570.461 1096.67 561.341C1084.25 554.332 1070.79 550.239 1057.05 549.289C1011.7 544.87 962.818 568.331 944.704 619.994C937.615 640.281 936.258 662.618 935.104 684.633C934.096 696.34 934.346 708.151 935.851 719.784C938.022 733.081 943.381 745.173 947.893 757.587C968.246 813.307 970.485 877.142 958.069 935.232C946.434 990.028 945.688 1038.12 960.41 1094.04C969.603 1128.59 984.257 1161.17 1005.39 1185.95Z" stroke="#29B6F6" stroke-miterlimit="10"/>
<path d="M1034.08 1086.01C1044.92 1105.49 1060.05 1121.1 1077.83 1131.16C1094.08 1139.91 1111 1146.75 1128.38 1151.57C1135.94 1154.1 1143.79 1155.2 1151.65 1154.82C1159.71 1154.34 1167.28 1150.13 1172.75 1143.09C1176.54 1137.15 1179.19 1130.29 1180.51 1123.01C1184.4 1104.59 1186.58 1085.73 1186.99 1066.76C1189.5 997.343 1180.21 926.919 1169.32 858.424C1160.6 803.708 1151.07 742.604 1122.78 696.365C1116.13 684.721 1107.62 674.743 1097.71 666.998C1090.25 661.843 1082.05 658.369 1073.53 656.754C1044.93 650.366 1015.25 663.503 1002.49 698.655C998.379 711.594 995.998 725.217 995.438 739.029C994.67 746.36 994.579 753.769 995.167 761.124C996.427 769.347 998.323 777.416 1000.83 785.228C1010.22 821.654 1012.27 860.177 1006.84 897.713C1001.02 936.536 1001.86 976.349 1009.31 1014.78C1013.8 1040.12 1022.19 1064.27 1034.08 1086.01Z" stroke="#29B6F6" stroke-miterlimit="10"/>
<path d="M1062.75 986.055C1065.53 1002.37 1072.52 1018.52 1084.59 1027.03C1096.67 1035.55 1114.31 1033.82 1122.59 1020.36C1128.66 1010.56 1128.66 997.424 1128.39 985.292C1127.59 952.966 1126.46 920.627 1124.99 888.274C1123.26 851.154 1122.55 801.339 1098.81 772.977C1083.61 754.779 1069.7 754.417 1060.31 777.517C1050.91 800.616 1053.52 835.165 1055.56 860.032C1058.64 900.888 1055.96 946.164 1062.75 986.055Z" stroke="#29B6F6" stroke-miterlimit="10"/>
<path d="M-96.4154 1198.24C-46.7204 1256.21 11.2515 1318.07 80.9941 1315.74C113.016 1314.58 143.342 1299.67 174.075 1288.79C233.627 1268.04 296.31 1263.1 357.658 1274.33C396.939 1281.56 435.372 1295.42 475.027 1299.43C514.681 1303.45 557.252 1296.34 587.951 1266.37C613.257 1241.74 629.471 1202.86 659.899 1188.43C679.505 1179.15 703.997 1180.76 718.617 1162.88C726.181 1153.76 729.675 1141.07 732.864 1128.9C753.997 1048.19 771.297 958.563 742.328 881.35C722.857 829.446 683.746 787.746 674.96 731.905C667.836 686.429 682.287 640.39 683.746 594.191C686.425 508.542 639.139 423.856 571.533 393.325C532.523 375.648 489.715 375.126 447.957 375.086C348.805 375.086 240.561 372.675 164.204 297.792C135.472 269.671 113.491 232.872 85.0647 204.269C55.1473 174.817 19.3382 154.969 -18.9236 146.633C-57.1853 138.296 -96.6143 141.75 -133.424 156.664" stroke="#29B6F6" stroke-miterlimit="10"/>
<path d="M438.082 692.502C473.598 691.056 510.063 685.271 540.864 664.381C571.664 643.491 595.749 604.483 594.358 562.462C592.967 520.441 566.033 483.321 533.842 464.52C501.651 445.719 464.914 441.782 429.059 439.975C359.35 436.439 255.72 422.419 212.572 504.894C175.259 576.081 222.07 649.517 281.094 672.375C330.347 691.377 386.691 694.631 438.082 692.502Z" stroke="#29B6F6" stroke-miterlimit="10"/>
<path d="M-97.6367 538.992C-40.7844 513.723 24.4805 529.672 77.5337 564.583C86.5907 570.528 95.6138 577.117 105.722 579.688C115.831 582.259 127.636 580.009 134.318 570.609C145.987 554.258 136.184 529.351 138.626 508.139C141.204 485.522 157.961 467.725 159.963 445.027C161.964 422.33 148.497 401.56 133.165 387.66C117.832 373.76 99.9218 363.797 86.3872 347.487C72.8525 331.177 64.7792 310.005 52.2622 292.852C19.528 247.938 -35.4248 239.1 -85.2554 233.395" stroke="#29B6F6" stroke-miterlimit="10"/>
<path d="M-79.0137 457.932C-34.6394 447.41 11.368 452.579 53.2799 472.796C56.6672 474.896 60.4481 475.946 64.2704 475.849C71.0547 474.925 75.7698 466.087 76.0751 457.811C76.5161 444.956 69.5622 433.708 62.9136 423.343L40.4237 388.714C34.0464 378.831 27.4318 368.627 18.4087 362.44C10.4358 357.545 1.84294 354.221 -7.0324 352.598L-72.8061 336.207" stroke="#29B6F6" stroke-miterlimit="10"/>
<path d="M476.38 602.223C485.101 598.309 492.93 592.036 499.243 583.904C505.145 575.387 508.028 563.175 504.297 553.091C501.021 545.89 496.047 539.972 489.982 536.058C455.077 509.142 301.482 448.521 297.208 537.705C292.357 638.78 427.228 627.934 476.38 602.223Z" stroke="#29B6F6" stroke-miterlimit="10"/>
<path d="M-78.2665 1112.76C-41.699 1156.19 4.19687 1193.11 55.8594 1197.81C84.7606 1200.46 113.526 1192.91 142.122 1187.44C238.273 1169.13 336.552 1173.94 431.1 1201.58C458.746 1192.79 486.833 1183.75 510.985 1165.43C529.676 1151.37 545.789 1132 566.447 1122.56C589.615 1111.96 617.058 1114.53 637.682 1098.06C656.068 1083.23 664.548 1056.32 668.958 1030.53C678.185 976.773 674.318 919.165 653.965 869.832C633.612 820.499 596.094 780.566 551.352 766.465C501.928 750.918 449.892 767.028 398.705 770.483C323.967 775.542 249.697 753.574 185.745 707.491C131.471 668.241 82.861 610.793 19.9026 600.991C-22.5333 594.965 -65.8512 611.757 -101.096 640.321" stroke="#29B6F6" stroke-miterlimit="10"/>
<path d="M-75.7569 1066C-44.8543 1098.54 -7.03166 1126.5 35.099 1130.6C58.8442 1132.89 82.1484 1127.59 105.486 1123.89C184.15 1111.67 264.04 1116.68 341.174 1138.67C354.336 1135.02 367.599 1131.32 380.32 1126.18C389.479 1122.58 398.327 1117.95 406.745 1112.36C422.247 1101.83 435.883 1087.13 452.708 1079.5C471.705 1070.94 493.415 1071.7 509.765 1057.52C523.978 1045.07 530.457 1023.7 533.51 1003.05C539.989 960.183 535.715 914.426 518.245 876.301C509.156 856.609 496.765 839.324 481.831 825.507C466.898 811.691 449.739 801.634 431.406 795.954C391.65 783.902 349.994 795.312 309.05 797.32C249.129 799.883 189.802 782.485 137.814 747.103C93.3425 716.772 52.6705 673.425 1.55052 666.757C-32.88 662.137 -67.9889 675.595 -96.8223 698.333" stroke="#29B6F6" stroke-miterlimit="10"/>
<path d="M-73.213 1019.23C-48.0433 1040.84 -18.2604 1059.92 14.338 1063.42C32.5876 1065.35 50.7695 1062.29 68.8495 1060.33C129.976 1054.23 191.532 1059.42 251.312 1075.71C261.489 1073.5 271.665 1071.25 281.841 1068.04C288.969 1065.76 295.916 1062.75 302.601 1059.04C314.949 1052.05 326.041 1041.97 339.067 1036.22C353.89 1029.63 370.173 1028.55 382.011 1016.7C392.188 1006.69 396.563 990.786 398.327 975.319C402.059 943.382 397.31 909.435 382.757 882.479C367.154 853.554 340.831 833.547 311.76 825.312C281.638 816.835 250.363 823.464 219.562 823.866C174.451 823.992 129.986 811.158 89.9825 786.464C55.1792 765.092 22.6487 735.806 -16.6661 731.909C-43.1587 729.297 -70.0244 739.26 -92.582 756.013" stroke="#29B6F6" stroke-miterlimit="10"/>
<path d="M-70.6695 972.593C-51.1986 983.319 -29.489 993.523 -6.42246 996.295C6.44027 997.271 19.3387 997.405 32.214 996.696C75.6712 996.714 119.008 1002.1 161.522 1012.77C168.815 1012.04 176.142 1011.28 183.334 1009.91C188.458 1009.05 193.517 1007.71 198.462 1005.9C207.621 1002.4 216.237 997.018 225.396 993.081C236.081 988.541 246.834 985.649 254.297 976.088C259.886 968.198 263.002 958.264 263.117 947.967C264.301 926.647 258.643 905.584 247.275 888.993C233.707 870.272 213.354 860.189 192.051 854.966C171.699 849.905 150.701 851.873 130.009 850.668C99.7539 848.44 70.0417 840.112 42.1529 826.042C16.9833 813.709 -7.40618 798.443 -34.9164 797.519C-53.6844 797.23 -72.157 803.068 -88.3086 814.392" stroke="#29B6F6" stroke-miterlimit="10"/>
<path d="M-68.126 925.67C-16.5314 925.107 33.6385 945.073 84.8261 951.742C100.464 953.791 120.003 952.063 126.583 935.15C132.248 920.487 123.632 902.771 111.794 894.977C99.9551 887.184 85.8437 886.179 72.3769 884.05C46.0199 880.033 20.5109 870.351 -5.64255 865.128C-31.796 859.906 -59.7813 859.143 -84.0352 872.159" stroke="#29B6F6" stroke-miterlimit="10"/>
<path d="M685.507 407.354C695.276 423.624 710.575 437.604 727.366 435.877C751.111 433.426 764.069 403.738 777.943 380.759C804.333 337.331 846.43 310.495 889.883 295.551C932.421 280.888 981.03 273.817 1009.73 233.844C1034.83 198.813 1036.86 148.436 1033.3 102.638C1029.1 47.6405 1018.11 -8.3613 990.664 -52.994C963.221 -97.6267 916.579 -128.761 870.48 -120.526C853.932 -117.868 838.414 -109.483 825.874 -96.4215C805.046 -74.0047 797.21 -39.6967 790.358 -7.39724C774.517 67.2852 768.445 158.399 723.533 217.574C682.861 270.643 643.919 337.251 685.507 407.354Z" stroke="#29B6F6" stroke-miterlimit="10"/>
<path d="M821.199 180.701C820.155 188.11 820.374 195.691 821.844 202.997C826.864 222.321 847.048 229.833 864.076 228.347C887.618 226.338 909.769 212.92 927.442 194.441C945.997 175.117 960.515 149.286 964.756 120.402C968.148 97.4225 964.756 73.8411 960.04 51.2236C949.864 1.73031 889.517 -87.3736 849.252 -15.5441C838.194 4.18089 840.229 34.3911 837.889 56.7675C833.479 98.3868 824.931 139.002 821.199 180.701Z" stroke="#29B6F6" stroke-miterlimit="10"/>
<path d="M-99.4004 60.6489C-51.7259 58.463 -4.08809 65.9773 41.4413 82.8648C55.0099 87.9266 71.7671 93.1088 82.147 81.4586C90.0168 72.6606 90.2543 58.0778 89.1688 45.3027C86.1837 9.1468 77.3302 -25.9244 70.953 -61.4376C44.4603 -209.154 60.5391 -362.455 79.6708 -511.779C90.2203 -594.134 100.6 -683.721 66.1022 -756.233" stroke="#29B6F6" stroke-miterlimit="10"/>
<path d="M-78.6406 -15.1064C-54.4926 -19.7618 -29.7198 -15.4684 -7.71078 -2.81343C-4.0779 -0.250043 -0.0349739 1.39162 4.16174 2.00739C12.5404 2.36895 19.3925 -6.95135 21.1225 -16.7134C22.8525 -26.4755 20.5798 -36.4384 18.4766 -46.08C-2.1593 -142.02 -10.2475 -241.142 -5.50588 -339.986C-2.11373 -409.044 7.38429 -477.62 8.60546 -546.758C9.82664 -615.896 2.16037 -687.364 -26.639 -747.623" stroke="#29B6F6" stroke-miterlimit="10"/>
<path d="M215.287 53.7078C230.382 108.143 252.601 163.421 293.306 194.716C342.289 232.559 406.027 226.854 463.659 215.084C500.735 207.451 538.082 197.568 571.19 176.437C604.297 155.306 633.13 121.4 643.917 78.7356C654.704 36.0717 646.291 -11.0515 628.517 -50.341C610.742 -89.6304 584.249 -122.331 557.112 -153.225C523.83 -192.04 487.836 -227.451 449.514 -259.081C420.477 -282.422 389.202 -302.87 355.145 -312.833C321.088 -322.796 283.91 -321.591 252.33 -303.231C137.201 -236.062 185.301 -54.5992 215.287 53.7078Z" stroke="#29B6F6" stroke-miterlimit="10"/>
<path d="M282.961 -227.478C213.998 -162.076 241.611 -43.8059 266.238 35.5765C278.348 75.107 295.648 114.758 325.431 137.697C359.047 163.568 401.653 163.287 441.917 156.619C444.767 156.136 447.616 155.614 450.432 155.092C477.739 149.95 505.283 142.718 529.333 126.609C553.384 110.5 573.431 84.4673 580.555 52.6501C587.679 20.8329 580.894 -13.7161 567.427 -42.4802C553.96 -71.2443 534.591 -94.7055 514.611 -117.283C489.908 -145.312 463.59 -171.273 435.845 -194.978C413.254 -214.141 387.236 -234.107 360.031 -243.99C332.113 -254.073 305.858 -249.172 282.961 -227.478Z" stroke="#29B6F6" stroke-miterlimit="10"/>
<path d="M313.625 -151.726C276.311 -112.517 298.123 -33.2149 317.017 17.524C326.244 42.0698 338.422 66.1335 357.452 80.6763C378.924 97.1473 405.552 99.116 431.604 95.9021C433.436 95.6611 435.268 95.42 437.066 95.1388C454.637 92.4874 472.412 87.9077 487.371 76.86C495.009 71.3945 501.6 64.1018 506.722 55.4481C511.845 46.7944 515.386 36.97 517.121 26.6032C520.275 5.9541 515.391 -16.302 506.198 -34.5407C497.005 -52.7794 484.861 -67.2016 472.005 -81.3025C456.062 -98.7377 439.101 -115.008 422.106 -130.876C405.96 -145.941 385.166 -165.425 364.779 -175.067C343.171 -185.391 322.309 -183.985 313.625 -151.726Z" stroke="#29B6F6" stroke-miterlimit="10"/>
<path d="M421.562 35.1924C430.11 35.1924 439.167 33.6256 445.68 27.1577C458.333 14.3424 455.28 -10.7256 445.273 -26.5137C435.266 -42.3018 420.307 -52.5862 408.638 -66.687C388.286 -90.791 339.168 -149.444 344.188 -75.8866C347.716 -26.835 375.701 34.1881 421.562 35.1924Z" stroke="#29B6F6" stroke-miterlimit="10"/>
<path d="M501.921 -745.706C513.63 -725.084 520.741 -701.288 522.591 -676.534C524.442 -651.78 520.972 -626.874 512.504 -604.136C500.598 -573.042 479.295 -546.367 474.682 -512.702C467.558 -460.477 502.735 -414.238 536.351 -379.167C585.003 -328.385 636.303 -281.276 689.948 -238.12C717.085 -216.266 745.579 -195.094 777.669 -186.859C801.075 -180.833 825.329 -182.038 849.176 -179.467C950.703 -168.58 1041.55 -86.8281 1090.02 19.3894C1107.15 56.8709 1122.79 100.981 1156.3 116.488C1201.99 137.619 1249.69 93.0267 1298.4 86.2374C1330.69 81.7381 1362.85 94.2721 1394.87 99.816C1494.19 117.05 1600 62.8166 1657.32 -34.7638C1776.25 -237.276 1842.54 -478.314 1877.81 -721.401" stroke="#29B6F6" stroke-miterlimit="10"/>
<path d="M559.657 -749.033C569.706 -730.982 575.858 -710.285 577.573 -688.76C579.288 -667.234 576.514 -645.54 569.495 -625.581C559.657 -598.424 541.916 -574.922 538.151 -545.515C532.317 -499.879 561.896 -459.504 590.187 -428.33C631.651 -382.647 675.866 -340.595 722.481 -302.507C746.226 -283.184 771.023 -264.503 798.941 -256.79C806.767 -254.737 814.699 -253.301 822.686 -252.491C835.508 -251.085 848.466 -250.644 861.289 -249.037C941.547 -239.074 1014.85 -181.706 1061.26 -105.096C1066.12 -97.0609 1070.64 -88.8656 1074.83 -80.5095C1090.67 -49.1744 1105.35 -12.2149 1134.6 1.40389C1174.45 19.9238 1215.63 -15.5895 1257.87 -20.0085C1273.81 -21.0636 1289.79 -19.468 1305.36 -15.2681C1317.47 -12.4962 1329.61 -9.24213 1341.79 -7.23347C1361.9 -3.8469 1382.3 -3.59028 1402.47 -6.47016C1469.1 -15.7502 1532.9 -57.1287 1571.84 -121.968C1600.4 -169.98 1625.37 -220.844 1646.47 -273.984C1703.87 -416.117 1740.1 -571.266 1762.15 -726.938" stroke="#29B6F6" stroke-miterlimit="10"/>
</g>
<path d="M-64.1562 -686.557L-64.1562 2326.43H1631.92L1631.92 -686.557H-64.1562Z" stroke="#505050" stroke-miterlimit="10"/>
</g>
</g>
<defs>
<clipPath id="clip0_1090_135">
<rect width="1080" height="2100" fill="white"/>
</clipPath>
<clipPath id="clip1_1090_135">
<rect width="3200" height="2013.71" fill="white" transform="matrix(0 -1 1 0 -134 2431)"/>
</clipPath>
</defs>
</svg>
